<?xml version="1.0" encoding="UTF-8" standalone="no"?>
<!-- Created with Inkscape (http://www.inkscape.org/) -->

<svg
   xmlns:dc="http://purl.org/dc/elements/1.1/"
   xmlns:cc="http://creativecommons.org/ns#"
   xmlns:rdf="http://www.w3.org/1999/02/22-rdf-syntax-ns#"
   xmlns:svg="http://www.w3.org/2000/svg"
   xmlns="http://www.w3.org/2000/svg"
   xmlns:sodipodi="http://sodipodi.sourceforge.net/DTD/sodipodi-0.dtd"
   xmlns:inkscape="http://www.inkscape.org/namespaces/inkscape"
   width="109.99998"
   height="43.999878"
   id="svg7229"
   sodipodi:version="0.32"
   inkscape:version="0.92.3 (2405546, 2018-03-11)"
   version="1.0"
   sodipodi:docname="media.svg"
   inkscape:output_extension="org.inkscape.output.svgz.inkscape">
  <defs
     id="defs7231">
    <style
       id="current-color-scheme"
       type="text/css">
      .ColorScheme-Text {
      }
      .ColorScheme-Background{
      }
      .ColorScheme-ViewText {
      }
      .ColorScheme-ViewBackground{
      }
      .ColorScheme-ViewHover {
      }
      .ColorScheme-ViewFocus{
      }
      .ColorScheme-ButtonText {
      }
      .ColorScheme-ButtonBackground{
      }
      .ColorScheme-ButtonHover {
      }
      .ColorScheme-ButtonFocus{
      }
</style>
  </defs>
  <sodipodi:namedview
     id="base"
     pagecolor="#aaaaaa"
     bordercolor="#666666"
     borderopacity="1.0"
     inkscape:pageopacity="0.13333333"
     inkscape:pageshadow="2"
     inkscape:zoom="15.92"
     inkscape:cx="27.248492"
     inkscape:cy="23.822462"
     inkscape:document-units="px"
     inkscape:current-layer="layer1"
     showgrid="false"
     inkscape:window-width="1519"
     inkscape:window-height="987"
     inkscape:window-x="151"
     inkscape:window-y="89"
     showguides="true"
     inkscape:guide-bbox="true"
     gridtolerance="6"
     inkscape:window-maximized="0"
     inkscape:snap-bbox="true"
     inkscape:pagecheckerboard="true"
     fit-margin-top="0"
     fit-margin-left="0"
     fit-margin-right="0"
     fit-margin-bottom="0">
    <inkscape:grid
       type="xygrid"
       id="grid7245"
       visible="true"
       enabled="true"
       empspacing="4"
       snapvisiblegridlinesonly="true"
       originx="-12.979891"
       originy="-0.21292726" />
  </sodipodi:namedview>
  <metadata
     id="metadata7234">
    <rdf:RDF>
      <cc:Work
         rdf:about="">
        <dc:format>image/svg+xml</dc:format>
        <dc:type
           rdf:resource="http://purl.org/dc/dcmitype/StillImage" />
        <dc:title />
      </cc:Work>
    </rdf:RDF>
  </metadata>
  <g
     inkscape:label="Camada 1"
     inkscape:groupmode="layer"
     id="layer1"
     transform="translate(-227.51561,-382.29223)">
    <g
       id="media-playback-pause"
       transform="translate(12.97989,-0.21292457)">
      <rect
         style="opacity:0.01000001;fill:#ed1515;fill-opacity:0.00392157;stroke:none;stroke-width:1.49997652"
         id="rect3003-0"
         width="22"
         height="21.99991"
         x="214.53572"
         y="404.50513" />
      <rect
         ry="0.5141"
         y="409.9"
         x="220.7"
         height="11.52"
         width="3.528"
         id="pp1"
         class="ColorScheme-Text"
         style="opacity:1;fill:currentColor;fill-opacity:1;fill-rule:nonzero;stroke:none;stroke-width:8.456;stroke-linecap:round;stroke-miterlimit:4;stroke-dasharray:none;stroke-dashoffset:0;stroke-opacity:1"
         rx="0.5141" />
      <rect
         style="opacity:1;fill:currentColor;fill-opacity:1;fill-rule:nonzero;stroke:none;stroke-width:8.456;stroke-linecap:round;stroke-miterlimit:4;stroke-dasharray:none;stroke-dashoffset:0;stroke-opacity:1"
         class="ColorScheme-Text"
         id="pp2"
         width="3.528"
         height="11.52"
         x="227.2"
         y="409.9"
         ry="0.5141"
         rx="0.5141" />
    </g>
    <rect
       style="opacity:0.8;fill:currentColor;fill-opacity:1;fill-rule:nonzero;stroke:none;stroke-width:8.4535532;stroke-linecap:round;stroke-miterlimit:4;stroke-dasharray:none;stroke-dashoffset:0;stroke-opacity:1"
       class="ColorScheme-Text"
       id="rect1465"
       width="2.0669894"
       height="6.7467694"
       x="232.73305"
       y="392.18021"
       ry="0.51396346" />
    <path
       sodipodi:type="inkscape:offset"
       inkscape:radius="0.75277585"
       inkscape:original="M 214.65039 380.00391 L 214.65039 391.26172 L 224.40039 385.63281 L 214.65039 380.00391 z "
       class="ColorScheme-Text"
       style="opacity:0.8;fill:currentColor;fill-opacity:1;fill-rule:nonzero;stroke:none;stroke-width:9.06099987;stroke-linecap:round;stroke-miterlimit:4;stroke-dasharray:none;stroke-dashoffset:0;stroke-opacity:1"
       id="path1479"
       d="m 214.66797,379.25195 a 0.75285113,0.75285113 0 0 0 -0.76953,0.75196 v 11.25781 a 0.75285113,0.75285113 0 0 0 1.1289,0.65234 l 9.75,-5.6289 a 0.75285113,0.75285113 0 0 0 0,-1.30469 l -9.75,-5.62891 a 0.75285113,0.75285113 0 0 0 -0.35937,-0.0996 z"
       transform="matrix(0.54145787,0,0,0.52975152,122.0833,186.34029)" />
    <g
       id="media-skip-forward"
       transform="translate(76.62,27.29)">
      <rect
         style="opacity:0.01;fill:#ed1515;fill-opacity:0.0039;stroke:none;stroke-width:1.5"
         id="rect3003-7"
         width="22"
         height="22"
         x="238.9"
         y="355" />
      <g
         transform="translate(-0.1135,-0.3806)"
         id="g1492">
        <path
           transform="matrix(0.5415,0,0,0.5298,129.6,162.1)"
           d="m 214.7,379.3 a 0.7529,0.7529 0 0 0 -0.8,0.7 v 11.3 a 0.7529,0.7529 0 0 0 1.1,0.6 l 9.8,-5.6 a 0.7529,0.7529 0 0 0 0,-1.3 l -9.8,-5.6 a 0.7529,0.7529 0 0 0 -0.3,-0.1 z"
           id="path1484"
           class="ColorScheme-Text"
           style="opacity:1;fill:currentColor;fill-opacity:1;fill-rule:nonzero;stroke:none;stroke-width:9.061;stroke-linecap:round;stroke-miterlimit:4;stroke-dasharray:none;stroke-dashoffset:0;stroke-opacity:1"
           inkscape:original="M 214.65039 380.00391 L 214.65039 391.26172 L 224.40039 385.63281 L 214.65039 380.00391 z "
           inkscape:radius="0.7528"
           sodipodi:type="inkscape:offset" />
        <rect
           ry="0.514"
           y="363"
           x="252.5"
           height="6.747"
           width="2.067"
           id="rect1486"
           class="ColorScheme-Text"
           style="opacity:1;fill:currentColor;fill-opacity:1;fill-rule:nonzero;stroke:none;stroke-width:8.4536;stroke-linecap:round;stroke-miterlimit:4;stroke-dasharray:none;stroke-dashoffset:0;stroke-opacity:1"
           rx="0.514" />
      </g>
    </g>
    <g
       transform="matrix(-1,0,0,1,576.40726,49.25787)"
       id="media-skip-backward">
      <rect
         y="355.03433"
         x="238.89166"
         height="21.99991"
         width="22"
         id="rect1500"
         style="opacity:0.01000001;fill:#ed1515;fill-opacity:0.00392157;stroke:none;stroke-width:1.49997652" />
      <g
         id="g1506"
         transform="translate(-0.11348322,-0.38063517)">
        <path
           sodipodi:type="inkscape:offset"
           inkscape:radius="0.75277585"
           inkscape:original="M 214.65039 380.00391 L 214.65039 391.26172 L 224.40039 385.63281 L 214.65039 380.00391 z "
           class="ColorScheme-Text"
           style="opacity:1;fill:currentColor;fill-opacity:1;fill-rule:nonzero;stroke:none;stroke-width:9.06099987;stroke-linecap:round;stroke-miterlimit:4;stroke-dasharray:none;stroke-dashoffset:0;stroke-opacity:1"
           id="path1502"
           d="m 214.66797,379.25195 a 0.75285113,0.75285113 0 0 0 -0.76953,0.75196 v 11.25781 a 0.75285113,0.75285113 0 0 0 1.1289,0.65234 l 9.75,-5.6289 a 0.75285113,0.75285113 0 0 0 0,-1.30469 l -9.75,-5.62891 a 0.75285113,0.75285113 0 0 0 -0.35937,-0.0996 z"
           transform="matrix(0.54145787,0,0,0.52975152,129.6376,162.12513)" />
        <rect
           style="opacity:1;fill:currentColor;fill-opacity:1;fill-rule:nonzero;stroke:none;stroke-width:8.4535532;stroke-linecap:round;stroke-miterlimit:4;stroke-dasharray:none;stroke-dashoffset:0;stroke-opacity:1"
           class="ColorScheme-Text"
           id="rect1504"
           width="2.0669894"
           height="6.7467694"
           x="252.48871"
           y="363.03433"
           ry="0.51396346" />
      </g>
    </g>
    <g
       id="media-seek-forward"
       transform="translate(59.7249,32.554562)">
      <rect
         style="opacity:0.01000001;fill:#ed1515;fill-opacity:0.00392157;stroke:none;stroke-width:1.49997652"
         id="rect3003-2"
         width="22"
         height="21.99991"
         x="233.7907"
         y="349.73773" />
      <g
         transform="translate(-2.7069933,-25.678566)"
         id="g1516">
        <path
           style="opacity:1;fill:currentColor;fill-opacity:1;fill-rule:nonzero;stroke:none;stroke-width:4.8528;stroke-linecap:round;stroke-miterlimit:4;stroke-dasharray:none;stroke-dashoffset:0;stroke-opacity:1"
           d="M 71.77 7.645 A 0.4077 0.3988 0 0 0 71.38 8.016 L 71.38 14 A 0.4077 0.3988 0 0 0 71.98 14.32 L 76.53 11.78 L 76.53 14 A 0.4077 0.3988 0 0 0 77.12 14.32 L 82.43 11.35 A 0.4077 0.3988 0 0 0 82.43 10.66 L 77.12 7.697 A 0.4077 0.3988 0 0 0 76.96 7.645 A 0.4077 0.3988 0 0 0 76.53 8.016 L 76.53 10.24 L 71.98 7.697 A 0.4077 0.3988 0 0 0 71.81 7.645 A 0.4077 0.3988 0 0 0 71.77 7.645 z "
           transform="translate(170.5,375.4)"
           id="path1510" />
      </g>
    </g>
    <g
       transform="matrix(-1,0,0,1,549.30629,54.55447)"
       id="media-seek-backward">
      <rect
         y="349.73773"
         x="233.7907"
         height="21.99991"
         width="22"
         id="rect1526"
         style="opacity:0.01000001;fill:#ed1515;fill-opacity:0.00392157;stroke:none;stroke-width:1.49997652" />
      <g
         id="g1532"
         transform="translate(-2.7069933,-25.678566)">
        <path
           style="opacity:1;fill:currentColor;fill-opacity:1;fill-rule:nonzero;stroke:none;stroke-width:4.8528;stroke-linecap:round;stroke-miterlimit:4;stroke-dasharray:none;stroke-dashoffset:0;stroke-opacity:1"
           d="M 77.04 29.64 A 0.4077 0.3988 0 0 0 76.88 29.7 L 71.57 32.66 A 0.4077 0.3988 0 0 0 71.57 33.35 L 76.88 36.32 A 0.4077 0.3988 0 0 0 77.47 36 L 77.47 33.78 L 82.02 36.32 A 0.4077 0.3988 0 0 0 82.62 36 L 82.62 30.02 A 0.4077 0.3988 0 0 0 82.19 29.64 A 0.4077 0.3988 0 0 0 82.02 29.7 L 77.47 32.24 L 77.47 30.02 A 0.4077 0.3988 0 0 0 77.04 29.64 z "
           transform="matrix(-1,0,0,1,324.5,353.4)"
           id="path1528" />
      </g>
    </g>
    <g
       id="media-playback-start"
       transform="translate(11.02,-0.2078)">
      <rect
         style="opacity:0.01;fill:#ed1515;fill-opacity:0.0039;stroke:none;stroke-width:1.5"
         id="rect3003-1"
         width="22"
         height="22"
         x="238.5"
         y="404.5" />
      <path
         sodipodi:type="inkscape:offset"
         inkscape:radius="0.7528"
         inkscape:original="M 214.65039 380.00391 L 214.65039 391.26172 L 224.40039 385.63281 L 214.65039 380.00391 z "
         class="ColorScheme-Text"
         style="opacity:1;fill:currentColor;fill-opacity:1;fill-rule:nonzero;stroke:none;stroke-width:5.4565;stroke-linecap:round;stroke-miterlimit:4;stroke-dasharray:none;stroke-dashoffset:0;stroke-opacity:1"
         id="play1"
         d="m 214.7,379.3 a 0.7529,0.7529 0 0 0 -0.8,0.7 v 11.3 a 0.7529,0.7529 0 0 0 1.1,0.6 l 9.8,-5.6 a 0.7529,0.7529 0 0 0 0,-1.3 l -9.8,-5.6 a 0.7529,0.7529 0 0 0 -0.3,-0.1 z"
         transform="matrix(0.8992,0,0,0.8798,52.17,76.23)" />
    </g>
    <g
       id="media-playback-stop"
       transform="translate(8.9798896,-0.21292457)">
      <rect
         style="opacity:0.01000001;fill:#ed1515;fill-opacity:0.00392157;stroke:none;stroke-width:1.49997652"
         id="rect3003-3"
         width="22"
         height="21.99991"
         x="262.53571"
         y="404.50513" />
      <rect
         style="opacity:1;fill:currentColor;fill-opacity:1;fill-rule:nonzero;stroke:none;stroke-width:15.27330208;stroke-linecap:round;stroke-miterlimit:4;stroke-dasharray:none;stroke-dashoffset:0;stroke-opacity:1"
         class="ColorScheme-Text"
         id="rect2155"
         width="6.7470002"
         height="6.7470002"
         x="270.1622"
         y="412.13159"
         ry="0.51398104" />
    </g>
    <g
       id="media-record"
       transform="translate(9.0199897,12.734372)">
      <rect
         style="opacity:0.01000001;fill:#ed1515;fill-opacity:0.00392157;stroke:none;stroke-width:1.49997652"
         id="rect3003-03"
         width="22"
         height="21.99991"
         x="262.49561"
         y="369.55792" />
      <rect
         style="opacity:1;fill:#ea79a2;fill-opacity:1;fill-rule:nonzero;stroke:none;stroke-width:15.27330208;stroke-linecap:round;stroke-miterlimit:4;stroke-dasharray:none;stroke-dashoffset:0;stroke-opacity:1"
         id="rect2166"
         width="6.7470002"
         height="6.7470002"
         x="270.1221"
         y="377.18439"
         ry="3.3735001" />
    </g>
    <g
       id="media-eject"
       transform="translate(15.756562,13.953732)">
      <rect
         style="opacity:0.01000001;fill:#ed1515;fill-opacity:0.00392157;stroke:none;stroke-width:1.24997437"
         id="rect3003"
         width="22"
         height="21.999956"
         x="233.75903"
         y="368.3385" />
      <g
         transform="translate(3.4217496,-0.63081465)"
         id="g2180">
        <path
           transform="matrix(0,-0.45261597,0.52975152,0,37.047491,477.85389)"
           d="m 214.66797,379.25195 a 0.75285113,0.75285113 0 0 0 -0.76953,0.75196 v 11.25781 a 0.75285113,0.75285113 0 0 0 1.1289,0.65234 l 9.75,-5.6289 a 0.75285113,0.75285113 0 0 0 0,-1.30469 l -9.75,-5.62891 a 0.75285113,0.75285113 0 0 0 -0.35937,-0.0996 z"
           id="path2174"
           class="ColorScheme-Text"
           style="opacity:1;fill:currentColor;fill-opacity:1;fill-rule:nonzero;stroke:none;stroke-width:9.06099987;stroke-linecap:round;stroke-miterlimit:4;stroke-dasharray:none;stroke-dashoffset:0;stroke-opacity:1"
           inkscape:original="M 214.65039 380.00391 L 214.65039 391.26172 L 224.40039 385.63281 L 214.65039 380.00391 z "
           inkscape:radius="0.75277585"
           sodipodi:type="inkscape:offset" />
        <rect
           ry="0.51396346"
           y="-244.71066"
           x="381.92618"
           height="6.7467694"
           width="2.0669894"
           id="rect2176"
           class="ColorScheme-Text"
           style="opacity:1;fill:currentColor;fill-opacity:1;fill-rule:nonzero;stroke:none;stroke-width:8.4535532;stroke-linecap:round;stroke-miterlimit:4;stroke-dasharray:none;stroke-dashoffset:0;stroke-opacity:1"
           transform="rotate(90)" />
      </g>
    </g>
  </g>
</svg>
